<svg xmlns="http://www.w3.org/2000/svg" viewBox="0 0 552.96 551.74"><defs><style>.cls-1{fill:#297fb8;}.cls-2{fill:#fff;}</style></defs><g id="katman_2" data-name="katman 2"><g id="Layer_1" data-name="Layer 1"><rect class="cls-1" width="552.96" height="551.74" rx="76.97"/><path class="cls-2" d="M262.86,316.65a66.46,66.46,0,0,0-7.66,21.52,67.65,67.65,0,0,0,3.48,34.94l15.31.7a52.71,52.71,0,0,0,11.59-18.28c6.63-17.88,1.17-33.92-.69-38.76Z"/><path class="cls-2" d="M112.87,251.34a28.59,28.59,0,0,1-21-8.68,28.05,28.05,0,0,1-8.71-20.81V70.05q0-3.43,3.59-3.44c2.38,0,3.58,1.15,3.58,3.44v51.84h33.27q3.45,0,3.45,3.57c0,2.56-1.15,3.83-3.45,3.83H90.35v92.56A21.13,21.13,0,0,0,97,237.55a21.6,21.6,0,0,0,15.87,6.52h10.75q3.45,0,3.45,3.57t-3.45,3.7Z"/><path class="cls-2" d="M267.69,251.34c-2.22,0-3.32-1.15-3.32-3.44V216.49a67.8,67.8,0,0,1-14.85,18.64,62.27,62.27,0,0,1-42.87,16.21q-26.85,0-45.8-19t-19.06-45.7q0-26.82,19.06-45.71t45.8-19q26.88,0,45.81,19t19.07,45.71V247.9q0,3.43-3.46,3.44ZM166,146q-17,16.85-17,40.6t17,40.59a57.52,57.52,0,0,0,81.37,0q17-16.85,17-40.59t-17-40.6A57.84,57.84,0,0,0,166,146Z"/><path class="cls-2" d="M392.79,148.19q-18.94-18.9-45.81-18.9t-45.81,18.9Q282.23,167.08,282.1,194a57,57,0,0,0,7.17,29.62A67,67,0,0,0,302.45,241c-4.79,6.91-17.35,25.08-17.46,25.24l-17.85,25.83a5.79,5.79,0,0,0,1.67,8.2l4.11,2.62,5.57,3.54a5.84,5.84,0,0,0,8-1.65l16.94-25,17.79-26.25a64.09,64.09,0,0,0,25.8,5.22,62.28,62.28,0,0,0,45.81-19q19.05-19,19.06-45.71T392.79,148.19Zm-5.12,86.17a57.71,57.71,0,0,1-98.4-40.72q0-23.76,17-40.6a57.57,57.57,0,0,1,98.26,40.6A55.4,55.4,0,0,1,387.67,234.36Z"/><path class="cls-2" d="M166.49,485.13q-4.67,0-4.67-4.48,0-5,4.67-5h45.62a34.17,34.17,0,0,0,24.82-10.14,33.71,33.71,0,0,0,10.32-24.75q0-17.13-11.82-24.43-5.16-3.33-25.65-8.81-22.64-6.13-32.8-14.62-13.15-11.3-13.16-31.73a44.57,44.57,0,0,1,44.47-44.53h32.47q4.5,0,4.5,4.65c0,3.33-1.5,5-4.5,5H208.29a33.63,33.63,0,0,0-24.65,10.14,34.3,34.3,0,0,0-10,24.76q0,17.94,14,27.25,7.81,5.31,28,10.79,22.32,5.83,30.15,12.47,11,9.3,11,29.08a42.51,42.51,0,0,1-13,31.23,43.16,43.16,0,0,1-31.65,13.13Z"/><path class="cls-2" d="M422.14,485.13q-3.33,0-3.33-3.45v-31.4A67.73,67.73,0,0,1,404,468.92a62.31,62.31,0,0,1-42.86,16.21q-26.88,0-45.81-19T296.23,420.4q0-26.81,19.07-45.71t45.81-19a62.31,62.31,0,0,1,45.81,19Q426,393.59,426,420.4v61.28q0,3.45-3.46,3.45ZM320.42,379.8q-17,16.86-17,40.6t17,40.6a57.55,57.55,0,0,0,81.38,0q17-16.86,17-40.6t-17-40.6a57.87,57.87,0,0,0-81.38,0Z"/><path class="cls-2" d="M483.82,485.13a28.63,28.63,0,0,1-21-8.68,28.08,28.08,0,0,1-8.7-20.81V303.84c0-2.3,1.2-3.45,3.58-3.45s3.59,1.15,3.59,3.45v51.84h33.26c2.31,0,3.46,1.18,3.46,3.57q0,3.83-3.46,3.83H461.3v92.56a21.16,21.16,0,0,0,6.65,15.7,21.63,21.63,0,0,0,15.87,6.51h10.74q3.46,0,3.46,3.58t-3.46,3.7Z"/></g></g></svg>